<svg enable-background="new 0 0 2592 601" height="601" viewBox="0 0 2592 601" width="2592" xmlns="http://www.w3.org/2000/svg" xmlns:xlink="http://www.w3.org/1999/xlink"><clipPath id="a"><path d="m1392 1h600v300h-600z"/></clipPath><clipPath id="b"><path d="m1392 1 300 150h-300zm300 0h300l-300 150zm0 150h300v150zm0 0v150h-300z"/></clipPath><clipPath id="c"><path d="m1392 1h600v300h-600z"/></clipPath><clipPath id="d"><path d="m1392 1h600v300h-600z"/></clipPath><path d="m1392 1h1200v600h-1200z" fill="#00247d"/><path clip-path="url(#a)" d="m1392 1 600 300m-600 0 600-300"/><path clip-path="url(#a)" d="m1978.584 327.833-286.584-143.292-286.584 143.292-26.832-53.666 246.334-123.167-246.334-123.167 26.832-53.666 286.584 143.292 286.584-143.292 26.832 53.666-246.334 123.167 246.334 123.167z" fill="#fff"/><path clip-path="url(#b)" d="m1392 1 600 300m-600 0 600-300"/><path clip-path="url(#b)" d="m1983.056 318.889-291.056-145.528-291.055 145.528-17.889-35.778 264.224-132.111-264.224-132.111 17.889-35.778 291.055 145.528 291.056-145.528 17.889 35.778-264.224 132.111 264.224 132.111z" fill="#cc142b"/><path clip-path="url(#c)" d="m1692 1v300m-300-150h600"/><path clip-path="url(#c)" d="m1742 301h-100v-100h-250v-100h250v-100h100v100h250v100h-250z" fill="#fff"/><path clip-path="url(#d)" d="m1692 1v300m-300-150h600"/><path clip-path="url(#d)" d="m1722 301h-60v-120h-270v-60h270v-120h60v120h270v60h-270z" fill="#cc142b"/><g fill="#fff"><path d="m2292 106.249v22.699l45.4-22.699z"/><path d="m2300.67 132.934-13.343-18.365 50.073-8.32z"/><path d="m2292 106.249v22.699l-45.4-22.699z"/><path d="m2283.329 132.934 13.343-18.365-50.072-8.32z"/><path d="m2306.03 116.441-21.589 7.015 35.618 36.164z"/><path d="m2283.329 132.934 13.343-18.365 23.387 45.051z"/><path d="m2277.97 116.441 21.589 7.015-7.56-50.192z"/><path d="m2306.029 116.441-21.589 7.015 7.559-50.192z"/><path d="m2277.97 116.441 21.589 7.015-35.618 36.164z"/><path d="m2300.67 132.934-13.343-18.365-23.386 45.051z"/></g><path d="m2292 111.252v15l30-15z" fill="#cc142b"/><path d="m2297.729 128.886-8.817-12.136 33.088-5.498z" fill="#cc142b"/><path d="m2292 111.252v15l-30-15z" fill="#cc142b"/><path d="m2286.27 128.886 8.817-12.136-33.087-5.498z" fill="#cc142b"/><path d="m2301.271 117.988-14.267 4.635 23.537 23.897z" fill="#cc142b"/><path d="m2286.271 128.886 8.816-12.136 15.454 29.77z" fill="#cc142b"/><path d="m2282.729 117.988 14.266 4.635-4.996-33.167z" fill="#cc142b"/><path d="m2301.27 117.988-14.266 4.635 4.995-33.167z" fill="#cc142b"/><path d="m2282.729 117.988 14.266 4.635-23.537 23.897z" fill="#cc142b"/><path d="m2297.729 128.886-8.817-12.136-15.454 29.77z" fill="#cc142b"/><path d="m2410.832 211.172v20.2l40.4-20.2z" fill="#fff"/><path d="m2418.548 234.919-11.874-16.342 44.558-7.405z" fill="#fff"/><path d="m2410.832 211.172v20.2l-40.4-20.2z" fill="#fff"/><path d="m2403.116 234.919 11.874-16.342-44.558-7.405z" fill="#fff"/><path d="m2423.317 220.243-19.212 6.242 31.696 32.181z" fill="#fff"/><path d="m2403.116 234.919 11.874-16.342 20.811 40.089z" fill="#fff"/><path d="m2398.348 220.243 19.211 6.242-6.727-44.665z" fill="#fff"/><path d="m2423.316 220.243-19.211 6.242 6.726-44.665z" fill="#fff"/><path d="m2398.348 220.243 19.211 6.242-31.695 32.181z" fill="#fff"/><path d="m2418.547 234.919-11.873-16.342-20.81 40.089z" fill="#fff"/><path d="m2410.832 216.176v12.5l25-12.5z" fill="#cc142b"/><path d="m2415.607 230.871-7.348-10.113 27.573-4.582z" fill="#cc142b"/><path d="m2410.832 216.176v12.5l-25-12.5z" fill="#cc142b"/><path d="m2406.057 230.871 7.348-10.113-27.573-4.582z" fill="#cc142b"/><path d="m2418.558 221.789-11.889 3.863 19.614 19.913z" fill="#cc142b"/><path d="m2406.058 230.871 7.347-10.113 12.878 24.807z" fill="#cc142b"/><path d="m2403.107 221.789 11.887 3.863-4.162-27.639z" fill="#cc142b"/><path d="m2418.557 221.789-11.888 3.863 4.163-27.639z" fill="#cc142b"/><path d="m2403.107 221.789 11.887 3.863-19.613 19.913z" fill="#cc142b"/><path d="m2415.607 230.871-7.348-10.113-12.878 24.807z" fill="#cc142b"/><path d="m2153.363 245.732v22.701l45.399-22.701z" fill="#fff"/><path d="m2162.033 272.418-13.342-18.365 50.071-8.321z" fill="#fff"/><path d="m2153.363 245.732v22.701l-45.401-22.701z" fill="#fff"/><path d="m2144.692 272.418 13.342-18.365-50.072-8.321z" fill="#fff"/><path d="m2167.392 255.926-21.589 7.014 35.618 36.164z" fill="#fff"/><path d="m2144.692 272.418 13.342-18.364 23.387 45.05z" fill="#fff"/><path d="m2139.332 255.926 21.59 7.014-7.56-50.192z" fill="#fff"/><path d="m2167.392 255.926-21.59 7.014 7.56-50.192z" fill="#fff"/><path d="m2139.332 255.926 21.59 7.014-35.619 36.164z" fill="#fff"/><path d="m2162.032 272.418-13.342-18.364-23.387 45.05z" fill="#fff"/><path d="m2153.363 250.736v15l30-15z" fill="#cc142b"/><path d="m2159.092 268.37-8.817-12.135 33.088-5.499z" fill="#cc142b"/><path d="m2153.363 250.736v15l-30-15z" fill="#cc142b"/><path d="m2147.633 268.37 8.816-12.135-33.086-5.499z" fill="#cc142b"/><path d="m2162.633 257.472-14.266 4.635 23.537 23.897z" fill="#cc142b"/><path d="m2147.633 268.37 8.816-12.135 15.455 29.769z" fill="#cc142b"/><path d="m2144.092 257.472 14.266 4.635-4.995-33.167z" fill="#cc142b"/><path d="m2162.633 257.472-14.267 4.635 4.997-33.167z" fill="#cc142b"/><path d="m2144.092 257.472 14.266 4.635-23.536 23.897z" fill="#cc142b"/><path d="m2159.092 268.37-8.817-12.135-15.453 29.769z" fill="#cc142b"/><path d="m2292 464.624v25.2l50.4-25.2z" fill="#fff"/><path d="m2301.625 494.248-14.812-20.387 55.587-9.237z" fill="#fff"/><path d="m2292 464.624v25.2l-50.4-25.2z" fill="#fff"/><path d="m2282.374 494.248 14.813-20.387-55.587-9.237z" fill="#fff"/><path d="m2307.574 475.939-23.966 7.788 39.541 40.146z" fill="#fff"/><path d="m2282.374 494.248 14.813-20.387 25.962 50.012z" fill="#fff"/><path d="m2276.425 475.939 23.967 7.788-8.393-55.721z" fill="#fff"/><path d="m2307.574 475.939-23.966 7.788 8.391-55.721z" fill="#fff"/><path d="m2276.425 475.939 23.967 7.788-39.541 40.146z" fill="#fff"/><path d="m2301.625 494.248-14.812-20.387-25.962 50.012z" fill="#fff"/><path d="m2292 469.628v17.5l35-17.5z" fill="#cc142b"/><path d="m2298.684 490.2-10.286-14.158 38.602-6.414z" fill="#cc142b"/><path d="m2292 469.628v17.5l-35-17.5z" fill="#cc142b"/><path d="m2285.316 490.2 10.286-14.158-38.602-6.414z" fill="#cc142b"/><path d="m2302.816 477.485-16.644 5.409 27.459 27.878z" fill="#cc142b"/><path d="m2285.316 490.2 10.286-14.158 18.029 34.73z" fill="#cc142b"/><path d="m2281.184 477.485 16.643 5.409-5.828-38.695z" fill="#cc142b"/><path d="m2302.815 477.485-16.643 5.409 5.827-38.695z" fill="#cc142b"/><path d="m2281.184 477.485 16.643 5.409-27.459 27.878z" fill="#cc142b"/><path d="m2298.684 490.2-10.286-14.158-18.03 34.73z" fill="#cc142b"/><path d="m0 0h1202v601h-1202z" fill="#00008b"/><path d="m388.39 470.811-48.827-28.977 31.42-47.292-53.099 20.109-17.384-54.051-17.385 54.051-53.097-20.109 31.42 47.292-48.828 28.977 56.564 4.92-7.789 56.242 39.115-41.156 39.115 41.156-7.791-56.242z" fill="#fff"/><path d="m943.352 510.386-23.251-13.798 14.962-22.52-25.285 9.576-8.278-25.739-8.279 25.739-25.284-9.576 14.962 22.52-23.251 13.798 26.934 2.343-3.708 26.782 18.626-19.599 18.625 19.599-3.708-26.782z" fill="#fff"/><path d="m793.102 272.49-23.251-13.799 14.962-22.519-25.285 9.576-8.278-25.739-8.279 25.739-25.284-9.576 14.962 22.519-23.251 13.799 26.934 2.344-3.708 26.781 18.626-19.598 18.625 19.598-3.708-26.781z" fill="#fff"/><path d="m943.352 109.719-23.251-13.798 14.962-22.521-25.285 9.577-8.278-25.739-8.279 25.739-25.284-9.577 14.962 22.521-23.251 13.798 26.934 2.343-3.708 26.782 18.626-19.598 18.625 19.598-3.708-26.782z" fill="#fff"/><path d="m1076.907 232.424-23.251-13.799 14.962-22.52-25.285 9.576-8.278-25.739-8.278 25.739-25.285-9.576 14.962 22.52-23.252 13.799 26.937 2.343-3.71 26.782 18.626-19.599 18.627 19.599-3.71-26.782z" fill="#fff"/><path d="m985.416 317.803-17.274-1.266-6.542-16.037-6.542 16.037-17.275 1.266 13.232 11.177-4.134 16.821 14.719-9.13 14.719 9.13-4.134-16.821z" fill="#fff"/><path d="m601 0h-67.194l-183.223 91.611v-91.611h-100.167v91.611l-183.222-91.611h-67.194v33.598l133.137 66.568h-133.137v100.168h133.137l-133.137 66.568v33.598h67.194l183.222-91.611v91.611h100.167v-91.611l183.223 91.611h67.194v-33.598l-133.136-66.568h133.136v-100.168h-133.136l133.136-66.568z" fill="#fff"/><path d="m270.45 0h60.1v120.2h270.45v60.1h-270.45v120.2h-60.1v-120.2h-270.45v-60.1h270.45z" fill="#f00"/><path d="m0 0 200.333 100.166h-44.796l-155.537-77.768zm601 0h-44.797l-200.334 100.166h44.797z" fill="#f00"/><path d="m601 300.5-200.334-100.166h44.797l155.537 77.768zm-601 0h44.795l200.334-100.166h-44.796z" fill="#f00"/></svg>