<?xml version="1.0" encoding="utf-8"?>
<!-- Generator: Adobe Illustrator 16.0.4, SVG Export Plug-In . SVG Version: 6.00 Build 0)  -->
<!DOCTYPE svg PUBLIC "-//W3C//DTD SVG 1.1//EN" "http://www.w3.org/Graphics/SVG/1.1/DTD/svg11.dtd">
<svg version="1.1" id="flag-icon-css-us" xmlns="http://www.w3.org/2000/svg" xmlns:xlink="http://www.w3.org/1999/xlink" x="0px"
	 y="0px" width="912.009px" height="480.005px" viewBox="0 0 912.009 480.005" enable-background="new 0 0 912.009 480.005"
	 xml:space="preserve">
<rect x="-19.5" y="-16.5" fill="#003399" width="955" height="517"/>
<path fill="#FFEF52" d="M456.16,26.765l6.792,21.308h22.546l-18.221,13.279l6.793,21.309l-18.22-13.279l-18.22,13.279l6.793-21.309
	l-18.221-13.279h22.546L456.16,26.765z M616.744,304.699l6.793,21.308h22.545l-18.221,13.279l6.793,21.309l-18.22-13.279
	l-18.22,13.279l6.793-21.309l-18.22-13.279h22.545L616.744,304.699L616.744,304.699z M456.16,397.344l6.792,21.309h22.546
	l-18.221,13.279l6.793,21.309l-18.22-13.279l-18.22,13.279l6.793-21.309l-18.221-13.279h22.546L456.16,397.344z M641.448,212.054
	l6.796,21.309h22.542l-18.22,13.279l6.796,21.309l-18.221-13.279l-18.223,13.279l6.796-21.309l-18.22-13.279h22.542L641.448,212.054
	z M270.869,212.054l6.796,21.309h22.542l-18.22,13.279l6.793,21.309l-17.911-13.279L252.65,267.95l6.794-21.309l-18.221-13.279
	h22.543L270.869,212.054z M548.805,51.47l6.793,21.309h22.542l-18.22,13.279l6.796,21.308l-18.22-13.279l-18.221,13.279
	l6.793-21.308l-18.22-13.279h22.542L548.805,51.47z M363.515,51.47l6.793,21.309h22.545l-18.22,13.279l6.793,21.308l-18.221-13.279
	l-18.22,13.279l6.793-21.308l-18.22-13.279h22.545L363.515,51.47z M363.515,372.638l6.793,21.309h22.545l-18.22,13.279l6.793,21.309
	l-18.221-13.279l-18.22,13.279l6.793-21.309l-18.22-13.279h22.545L363.515,372.638L363.515,372.638z M548.805,372.638l6.793,21.309
	h22.542l-18.22,13.279l6.796,21.309l-18.22-13.279l-18.221,13.279l6.793-21.309l-18.22-13.279h22.542L548.805,372.638
	L548.805,372.638z M616.744,119.41l6.793,21.309h22.545l-18.221,13.278l6.793,21.309l-18.22-13.279l-18.22,13.279l6.793-21.309
	l-18.22-13.278h22.545L616.744,119.41z M295.576,119.41l6.792,21.309h22.545l-18.22,13.278l6.793,21.309l-17.911-13.279
	l-18.22,13.279l6.793-21.309l-18.219-13.278h22.544L295.576,119.41z M295.576,304.699l6.792,21.308h22.545l-18.22,13.279
	l6.793,21.309l-18.22-13.279l-18.22,13.279l6.793-21.309l-18.219-13.279h22.544L295.576,304.699z"/>
</svg>
