<svg version="1.1" id="Layer_1" xmlns="http://www.w3.org/2000/svg" xmlns:xlink="http://www.w3.org/1999/xlink" x="0" y="0" width="199.79" height="199.521" viewBox="0 0 199.79 199.521" enable-background="new 0 0 199.79 199.521" xml:space="preserve"><g id="_x37_kGIur_1_"><g><path fill="#FFF" d="M80.776,98.341c0-9.241,0.042-17.544-0.011-25.848c-0.062-9.74,4.188-17.525,11.61-23.281 c14.366-11.14,30.863-8.633,47.019-7.358c0,8.8,0,16.724,0,24.698c-7.812,0.45-15.099,0.776-22.367,1.326 c-3.834,0.29-6.271,2.617-6.375,6.454c-0.211,7.787-0.062,15.584-0.062,24.212c9.555,0,19.262,0,29.506,0 c-0.389,7.975-1.014,15.096-0.975,22.215c0.021,4.064-1.455,5.143-5.244,5.037c-7.773-0.215-15.56-0.064-23.496-0.064 c0,25.091,0,49.422,0,73.79c48.896-4.328,93.024-48.148,89.174-105.943C195.743,36.361,146.831-3.549,93.162,0.25 C33.667,4.461-6.796,57.841,0.949,113.54c3.597,25.872,15.511,47.23,35.545,63.936c12.522,10.44,26.745,17.442,43.525,20.651 c0-24.467,0-48.046,0-72.332c-6.69,0-13.238,0-19.76,0c0-9.443,0-18.18,0-27.454C66.938,98.341,73.219,98.341,80.776,98.341z"/><path fill="#FFF" d="M80.776,98.341c-7.557,0-13.838,0-20.517,0c0,9.274,0,18.01,0,27.454c6.522,0,13.07,0,19.76,0 c0,24.286,0,47.865,0,72.332c-16.78-3.209-31.003-10.211-43.525-20.651C16.46,160.771,4.546,139.412,0.949,113.54 C-6.796,57.841,33.667,4.461,93.162,0.25c53.668-3.799,102.581,36.11,106.393,93.328c3.852,57.795-40.277,101.615-89.174,105.943 c0-24.368,0-48.699,0-73.79c7.938,0,15.723-0.149,23.496,0.064c3.789,0.104,5.266-0.973,5.244-5.037 c-0.039-7.119,0.586-14.24,0.975-22.215c-10.244,0-19.951,0-29.506,0c0-8.628-0.148-16.425,0.062-24.212 c0.104-3.837,2.541-6.164,6.375-6.454c7.271-0.55,14.558-0.876,22.367-1.326c0-7.975,0-15.898,0-24.698 c-16.156-1.273-32.653-3.781-47.019,7.358c-7.422,5.756-11.672,13.541-11.61,23.281C80.818,80.796,80.776,89.1,80.776,98.341z"/></g></g></svg>