<svg version="1.1" id="Layer_1" xmlns="http://www.w3.org/2000/svg" xmlns:xlink="http://www.w3.org/1999/xlink" x="0" y="0" width="199.875" height="199.875" viewBox="0 0 199.875 199.875" enable-background="new 0 0 199.875 199.875" xml:space="preserve"><g><path fill="#FFF" d="M100.137,0C45.076-0.069,0.11,44.662,0,99.614C-0.11,154.907,44.76,199.9,99.987,199.875 c55.022-0.025,99.865-44.857,99.888-99.861C199.898,44.977,155.113,0.07,100.137,0z M164.982,147.65 c-0.012,11.477-5.758,17.326-17.071,17.332c-31.978,0.021-63.959,0.02-95.938,0c-11.301-0.006-17.086-5.877-17.091-17.323 c-0.015-31.813-0.016-63.626,0.001-95.439c0.007-11.653,5.775-17.333,17.581-17.337c31.646-0.012,63.292-0.012,94.938,0 c11.996,0.005,17.578,5.676,17.584,17.827c0.01,15.824,0.002,31.647,0.002,47.47C164.988,116.004,165.002,131.826,164.982,147.65z"/><path fill="#FFF" d="M100.766,135.869c19.394-0.167,35.209-16.221,35.104-35.636c-0.105-19.388-16.116-35.272-35.512-35.229 c-19.408,0.043-35.32,15.97-35.354,35.385C64.97,119.979,81.155,136.037,100.766,135.869z"/><path fill="#FFF" d="M154.531,88.291c-4,0-7.596,0-11.719,0c2.707,13.676,0.592,26.166-7.539,37.241 c-8.28,11.274-19.58,17.425-33.494,18.284c-11.437,0.705-21.794-2.739-30.531-10.168c-14.022-11.922-18.478-27.39-15.328-45.352 c-4.234,0-7.816,0-11.659,0c-0.102,1.58-0.258,2.874-0.259,4.168c-0.016,18.162-0.033,36.323,0.003,54.484 c0.012,6.197,1.779,7.914,8.104,7.918c31.491,0.023,62.982,0.021,94.473,0.004c6.615-0.003,8.277-1.657,8.287-8.229 c0.023-17.994,0.015-35.99-0.006-53.984C154.861,91.221,154.65,89.783,154.531,88.291z"/><path fill="#FFF" d="M143.665,43.99c-12.675,0-12.675,0-12.677,12.592c0,0.166,0,0.332,0,0.499c0,11.796,0,11.796,11.968,11.796 c12.92,0,12.92,0,12.922-12.835C155.878,43.99,155.878,43.99,143.665,43.99z"/></g></svg>