<svg version="1.1" id="Layer_1" xmlns="http://www.w3.org/2000/svg" xmlns:xlink="http://www.w3.org/1999/xlink" x="0" y="0" width="642.024" height="125.229" viewBox="0 0 642.024 125.229" enable-background="new 0 0 642.024 125.229" xml:space="preserve"><polygon fill="#FFF" points="252.493,116.771 252.493,50.03 223.803,101.211 217.602,101.211 188.791,50.03 188.791,116.771 177.849,116.771 177.849,30.457 189.398,30.457 220.642,86.501 252.007,30.457 263.434,30.457 263.434,116.771"/><polygon fill="#FFF" points="342.696,107.047 342.696,116.771 284.1,116.771 284.1,30.458 341.602,30.458 341.602,40.184 295.041,40.184 295.041,68.145 335.523,68.145 335.523,77.262 295.041,77.262 295.041,107.047"/><path fill="#FFF" d="M349.26,116.771l35.497-86.314h8.997l35.377,86.314H417.46l-10.212-25.286h-36.227l-10.091,25.286H349.26z M389.256,43.101l-16.048,39.875h31.608L389.256,43.101z"/><polygon fill="#FFF" points="490.726,40.183 460.942,40.183 460.942,116.772 450,116.772 450,40.183 420.217,40.183 420.217,30.457 490.726,30.457"/><polygon fill="#FFF" points="560.574,107.047 560.574,116.771 501.978,116.771 501.978,30.458 559.48,30.458 559.48,40.184 512.919,40.184 512.919,68.145 553.401,68.145 553.401,77.262 512.919,77.262 512.919,107.047"/><path fill="#FFF" d="M576.133,116.772V30.457h36.956c3.811,0,7.314,0.791,10.517,2.371c3.2,1.581,5.957,3.689,8.268,6.321	c2.309,2.635,4.112,5.593,5.409,8.875c1.296,3.283,1.946,6.626,1.946,10.03c0,2.999-0.427,5.896-1.278,8.692	c-0.851,2.796-2.066,5.33-3.647,7.598c-1.58,2.27-3.485,4.215-5.713,5.835c-2.23,1.623-4.722,2.795-7.476,3.526l20.909,33.067h-12.4	l-19.695-31h-22.854v31H576.133z M587.075,76.046h26.137c2.268,0,4.317-0.486,6.139-1.459c1.825-0.972,3.384-2.289,4.682-3.951	c1.295-1.66,2.31-3.586,3.039-5.774c0.729-2.188,1.095-4.456,1.095-6.808c0-2.431-0.427-4.72-1.277-6.869	c-0.851-2.147-1.986-4.052-3.403-5.714c-1.419-1.66-3.081-2.957-4.984-3.89c-1.906-0.931-3.911-1.398-6.018-1.398h-25.408V76.046z"/><path fill="#C21028" d="M147.528,25.286C147.528,11.343,136.185,0,122.242,0c-9.112,0-17.089,4.861-21.54,12.109	c-9.416-4.78-20.06-7.492-31.343-7.492C31.053,4.617,0,35.669,0,73.975c0,17.768,6.687,33.963,17.672,46.237	c-0.989-5.771-0.085-12.962,3.393-18.637C26.46,92.77,39.777,75.137,24.3,66.804c8.61,1.91,11.64,8.31,10.36,16.068	c-1.483,9.005-8.224,18.267-2.646,27.188c4.943,7.903,17.749,8.422,20.878-1.102c5.331-12.938-15.203-20.869-12.432-1.064	c-6.654-6.031-4.412-14.463,2.454-17.352c11.121-4.681,25.304,6.348,25.974,18.653c14.16-10.759-0.706-19.023-13.457-26.165	c-19.497-10.924-24.166-29.907-2.18-41.485c-3.533,3.338-17.955,20.723,0.442,27c-1.707-18.873,14.884-41.226,30.366-43.259	c-17.914,6.675-26.132,30.32-13.145,45.537c5.669,6.645,16.017,11.83,22.578,17.441c17.845,15.266,11.829,28.996,4.719,36.965	c18.728-13.95,4.394-33.78-3.027-41.896c-4.002-4.626-8.337-8.689-7.719-15.077c0.618-5.225,3.717-9.871,9.29-11.612	c-10.524,5.514,2.099,18.368,6.846,22.923c8.578,8.236,15.518,14.563,17.444,26.419c1.085,6.68-0.26,12.255-2.868,17.248	c12.683-12.567,20.54-29.994,20.54-49.259c0-9.248-1.825-18.065-5.109-26.132C141.851,43.672,147.528,35.139,147.528,25.286 M122.242,42.058c-9.249,0-16.772-7.523-16.772-16.772c0-3.265,0.952-6.305,2.572-8.885c2.97-4.728,8.217-7.887,14.2-7.887	c9.248,0,16.772,7.524,16.772,16.772c0,6.48-3.699,12.101-9.091,14.893C127.619,41.372,125.011,42.058,122.242,42.058"/></svg>