<?xml version="1.0" encoding="utf-8"?>
<!-- Generator: Adobe Illustrator 16.0.4, SVG Export Plug-In . SVG Version: 6.00 Build 0)  -->
<!DOCTYPE svg PUBLIC "-//W3C//DTD SVG 1.1//EN" "http://www.w3.org/Graphics/SVG/1.1/DTD/svg11.dtd">
<svg version="1.1" id="flag-icon-css-us" xmlns="http://www.w3.org/2000/svg" xmlns:xlink="http://www.w3.org/1999/xlink" x="0px"
	 y="0px" width="912.009px" height="480.005px" viewBox="0 0 912.009 480.005" enable-background="new 0 0 912.009 480.005"
	 xml:space="preserve">
<rect x="-5.009" y="-17.5" fill="#458DCE" width="919.018" height="515"/>
<g>
	<circle fill="none" stroke="#FFFFFF" stroke-width="13" stroke-miterlimit="10" cx="461" cy="243" r="182.5"/>
	<g id="dYhBjE_1_">
		<g>
			<path fill="#FFFFFF" d="M634.081,240.674c-0.151,0.655-0.427,1.309-0.437,1.967c-0.126,8.827-0.112,17.67-1.618,26.403
				c-0.54,3.132-1.464,6.196-2.203,9.295c-0.84,3.525-1.44,7.126-2.552,10.563c-2.456,7.605-4.903,15.238-8.761,22.298
				c-1.519,2.776-3.271,5.366-6.03,7.143c-1.198,0.771-2.188,1.857-3.345,2.704c-0.521,0.383-1.216,0.53-1.832,0.784
				c-0.121-0.851-0.598-1.854-0.304-2.522c1.521-3.449,0.607-6.692-0.371-10.026c-0.434-1.476-0.571-3.091-0.533-4.636
				c0.062-2.621,0.608-5.246,0.51-7.853c-0.089-2.323-0.71-4.639-1.225-6.929c-0.33-1.473-1.181-2.87-1.284-4.337
				c-0.17-2.384-0.113-4.824,0.213-7.19c0.284-2.066,1.022-4.078,1.659-6.084c0.335-1.056,0.674-2.219,1.366-3.029
				c1.711-2.002,1.675-4.226,1.175-6.535c-0.39-1.791-0.83-3.452-0.311-5.396c0.338-1.258-0.426-2.811-0.69-4.229
				c-0.874-4.662-2.487-8.98-5.37-12.835c-0.995-1.331-1.449-3.075-2.087-4.656c-0.124-0.309,0.003-0.746,0.089-1.107
				c0.312-1.311,0.786-2.598,0.955-3.925c0.269-2.105,0.339-4.235,0.494-6.355c0.176-2.407-1.515-3.911-2.958-5.338
				c-0.514-0.507-2.08-0.061-3.138,0.122c-2.507,0.435-3.066,0.133-3.705-2.254c-0.808-3.024-2.485-4.48-5.529-4.148
				c-2.482,0.271-5.054,0.748-7.316,1.741c-2.911,1.276-5.393,2.398-8.812,1.048c-3.215-1.27-6.696-0.158-9.912,1.268
				c-0.822,0.364-2.12,0.397-2.89-0.008c-1.666-0.876-3.156-2.1-4.672-3.244c-2.612-1.977-5.285-3.895-7.742-6.053
				c-1.165-1.023-2.226-2.426-2.739-3.868c-0.821-2.299-1.839-4.184-3.87-5.73c-1.494-1.138-2.376-3.068-3.593-4.595
				c-0.264-0.328-0.869-0.363-1.192-0.666c-1.034-0.968-2.097-1.933-2.949-3.05c-0.222-0.29,0.286-1.136,0.591-2.177
				c-0.641-1.068-1.584-2.643-2.253-3.758c0.624-2,1.169-3.736,1.707-5.476c0.213-0.688,0.51-1.369,0.6-2.074
				c0.154-1.218,0.34-2.469,0.223-3.677c-0.177-1.823-1.741-3.392-0.93-5.474c0.139-0.356-0.676-1.182-1.171-1.668
				c-1.594-1.565-1.67-2.926-0.291-4.638c0.439-0.547,0.618-1.295,0.998-1.899c0.789-1.255,1.643-2.469,2.449-3.712
				c0.34-0.521,0.786-1.041,0.911-1.62c0.362-1.685,0.549-3.403,2.612-3.982c0.324-0.091,0.74-0.499,0.792-0.814
				c0.359-2.154,1.853-2.366,3.681-2.755c1.638-0.348,3.171-1.511,4.562-2.563c1.055-0.798,1.591-1.812,0.719-3.411
				c-1.053-1.933,0.914-5.375,3.131-5.693c2.26-0.323,3.841-1.112,4.321-3.55c0.234-1.19,0.879-0.895,1.729-0.322
				c3.191,2.147,6.624,3.29,10.58,2.527c4.132-0.797,8.124-0.285,12.002,1.516c1.919,0.891,4.09,1.225,6.098,1.945
				c1.329,0.477,3.603,1.12,3.65,1.814c0.119,1.715,2.975,2.481,1.442,4.59c-0.19,0.263,0.095,1.206,0.438,1.464
				c1.916,1.441,3.942,2.737,5.884,4.148c1.112,0.81,2.212,1.668,3.186,2.637c2.353,2.338,4.625,4.754,6.929,7.139
				c0.226-0.083,0.448-0.166,0.674-0.25c-0.223-1.091-0.442-2.183-0.776-3.827c0.987,0.701,1.662,1.003,2.087,1.513
				c1.995,2.393,3.842,4.913,5.891,7.256c3.612,4.131,5.44,9.152,7.493,14.109c5.284,12.764,9.39,25.861,11.33,39.559
				c0.833,5.876,1.229,11.812,1.832,17.721c0.105,1.035,0.259,2.065,0.39,3.099C634.081,238.293,634.081,239.483,634.081,240.674z"
				/>
			<path fill="#FFFFFF" d="M467.073,70.096c3.013,0.269,6.032,0.465,9.034,0.82c5.232,0.62,10.454,1.328,15.677,2.03
				c0.441,0.06,0.852,0.354,1.46,0.62c-2.101,0-3.903,0.106-5.691-0.021c-4.378-0.311-8.745-0.978-13.122-1.027
				c-3.916-0.044-7.839,0.562-11.762,0.849c-1.671,0.122-3.347,0.146-5.019,0.245c-3.174,0.186-5.963,1.532-8.426,3.35
				c-2.231,1.647-4.551,2.018-7.161,1.718c-1.54-0.177-3.13-0.461-4.638-0.255c-3.503,0.479-6.733-0.581-10.028-1.367
				c-1.313-0.312-2.628-0.63-4.153-0.996c0.604-0.36,1.106-0.66,1.637-0.976c-0.298-0.248-0.587-0.488-0.896-0.746
				c0.118-0.102,0.188-0.209,0.274-0.229c9.036-1.944,18.162-3.216,27.401-3.636c1.042-0.047,2.077-0.25,3.116-0.38
				C458.876,70.096,462.976,70.096,467.073,70.096z"/>
			<path fill="#FFFFFF" d="M454.778,416.408c4.1,0,8.198,0,12.297,0C462.976,416.408,458.876,416.408,454.778,416.408z"/>
			<path fill="#FFFFFF" d="M332.654,239.684c-2.396,0.302-3.291-1.5-2.371-4.304c0.563-1.723,1.142-3.44,1.763-5.144
				c0.124-0.34,0.412-0.763,0.721-0.868c1.339-0.459,1.922-1.313,2.345-2.703c0.352-1.152,1.482-2.098,2.357-3.052
				c1.729-1.886,1.382-4.228,1.433-6.442c0.064-2.845,0.613-5.808-1.544-8.29c-0.298-0.343,0.045-1.183-0.188-1.651
				c-0.408-0.815-0.918-1.689-1.63-2.188c-0.287-0.201-1.424,0.366-1.817,0.865c-0.712,0.9-2.389,1.563-1.222,3.246
				c0.072,0.105-0.333,0.667-0.622,0.854c-0.171,0.111-0.633-0.003-0.818-0.174c-1.243-1.14-2.307-2.54-4.332-2.245
				c-0.317,0.047-0.812-0.42-1.067-0.767c-0.897-1.216-1.727-2.483-2.594-3.75c-0.422,0.389-0.679,0.625-0.936,0.862
				c-0.221-0.365-0.709-0.823-0.619-1.08c0.728-2.085-0.668-3.488-1.491-5.086c-0.43-0.833-0.793-1.7-1.064-2.291
				c-2.203-0.397-4.479-0.582-6.571-1.295c-0.842-0.287-1.302-1.726-1.91-2.657c-1.261-1.932-1.588-1.98-3.25-0.428
				c-1.448,1.354-3.662,0.963-5.769-0.623c-2.154-1.621-2.438-3.334-1.556-5.836c0.812-2.297,0.547-4.992,1.446-7.235
				c2.246-5.601,4.582-11.204,7.42-16.521c9.971-18.681,23.134-34.86,39.179-48.668c2.244-1.932,4.869-3.421,7.54-5.269
				c-0.101,0.769-0.166,1.264-0.232,1.781c2.489,0.344,4.772-1.17,5.661-3.355c0.357-0.885,1.163-1.689,1.954-2.275
				c1.471-1.087,3.119-1.931,4.604-3c0.424-0.305,0.54-1.038,0.797-1.575c-0.156-0.114-0.312-0.229-0.468-0.344
				c2.548-1.77,4.96-3.798,7.686-5.229c2.326-1.221,5.267-2.851,7.479-2.337c3.307,0.767,5.594-0.534,8.194-1.613
				c0.592-0.245,1.128-0.649,1.648-1.035c1.587-1.176,4.809-1.266,6.359-0.089c0.248,0.188,0.283,0.656,0.559,1.354
				c2.138,0,4.794,0,7.45,0.001c0.198,0,0.533-0.058,0.574,0.025c0.979,1.976,2.887,0.149,4.115,0.981
				c0.348,1.503-0.489,2.052-1.717,2.496c-7.646,2.77-15.378,5.148-23.367,6.821c-4.448,0.932-8.174,3.829-11.758,6.673
				c4.26-2.334,8.454-4.766,13.36-5.31c0.103,0.251,0.205,0.501,0.307,0.752c-1.408,0.564-2.818,1.128-4.527,1.812
				c0.905,0,1.58,0,1.691,0c0.561,0.946,0.925,2.116,1.31,2.122c2.328,0.036,4.729,0.086,6.964-0.451
				c1.134-0.272,1.974-1.765,2.98-2.74c0.419,0.646,0.69,1.066,1.016,1.566c0.025-0.054-0.045,0.146-0.072,0.14
				c-2.245-0.491-3.252,1.752-5.053,2.285c-2.02,0.599-4.014,1.319-5.945,2.153c-1.067,0.461-1.948,1.339-2.988,1.885
				c-0.598,0.313-1.346,0.338-2.025,0.493c-0.106-0.276-0.213-0.553-0.32-0.829c1.809-1.023,3.617-2.047,5.43-3.072
				c-0.281-0.027-0.854-0.26-1.271-0.095c-2.104,0.837-4.18,1.748-6.241,2.687c-2.136,0.972-4.282,1.932-6.348,3.039
				c-1.08,0.579-2.123,1.349-2.943,2.25c-0.557,0.61-0.697,1.6-1.059,2.509c-2.488,1.327-5.266,2.778-8,4.304
				c-0.329,0.183-0.36,0.836-0.659,1.146c-0.938,0.978-1.939,1.896-3.09,2.52c-0.402,1.012-0.806,2.023-1.207,3.035
				c-0.182-0.01-0.362-0.019-0.544-0.028c-0.241-0.725-0.482-1.449-0.843-2.53c-0.479,1.925-1.665,3.327-0.745,5.3
				c0.271,0.58-0.191,1.874-0.74,2.397c-1.837,1.751-3.911,3.249-5.81,4.94c-2.525,2.253-5.056,4.514-7.422,6.93
				c-1.487,1.52-1.418,3.497-1.151,5.569c0.336,2.618,1.307,5.328-0.187,7.916c-0.365,0.633-0.858,1.189-1.447,1.989
				c-1.649-2.543-3.006-4.672-1.982-7.622c0.238-0.687-0.816-1.821-1.334-2.866c-1.517,0.903-2.415,1.695-4.239,1.21
				c-1.438-0.383-3.396,1.157-5.11,1.877c-0.534,0.225-1.023,0.559-1.541,0.846c0.429,1.009-0.768,2.8-1.959,2.692
				c-2.669-0.239-4.405,1.172-5.868,3.112c-1.411,1.871-3.394,3.59-4.035,5.706c-1.393,4.588-4.062,8.856-3.9,13.868
				c0.04,1.239,0.109,2.532,0.504,3.685c0.252,0.735,1.126,1.257,1.521,1.666c1.737-0.741,3.379-1.197,4.718-2.102
				c0.837-0.565,1.241-1.793,1.795-2.749c0.263-0.453,0.532-0.948,0.612-1.454c0.598-3.771,3.436-4.723,6.762-5.455
				c-1.986,5.121-3.899,10.058-6.024,15.54c1.864-0.418,3.475-0.632,4.977-1.153c1.714-0.595,3.142-1.153,4.73,0.514
				c0.971,1.017,0.572,1.865,0.391,2.737c-0.577,2.759-1.602,5.459-1.85,8.235c-0.131,1.454,0.773,3.158,1.601,4.511
				c1.991,3.263,3.078,2.79,5.564,1.09c2.805-1.914,4.232-1.645,6.487,1.028c0.366,0.434,0.746,0.856,1.054,1.208
				c0.589-0.885,1.088-1.687,1.64-2.451c0.963-1.335,2.226-2.375,2.378-4.317c0.078-0.992,0.92-1.952,2.745-2.258
				c2.234-0.374,4.181-2.472,6.255-3.82c0.625-0.405,1.26-0.795,1.891-1.192c0.166,0.199,0.332,0.398,0.499,0.597
				c-0.309,0.414-0.53,1.027-0.939,1.203c-1.183,0.507-1.32,1.129-0.903,2.325c0.243,0.698-0.212,1.63-0.317,2.461
				c-0.104,0.838-0.301,1.699-0.19,2.514c0.054,0.403,0.706,0.728,1.087,1.086c0.405-0.472,1.093-0.912,1.146-1.422
				c0.078-0.721-0.22-1.531-0.519-2.234c-0.511-1.201-0.313-2.062,0.938-2.554c1.34-0.525,2.655-1.201,4.048-1.473
				c1.454-0.283,2.95-0.199,3.289,1.878c0.057,0.342,1.053,0.851,1.499,0.754c2.161-0.467,4.17-0.678,6.238,0.563
				c1.864,1.118,3.296-0.775,4.952-1.203c1.184-0.305,2.337-0.727,3.763-1.178c-0.695,1.503-0.004,2.564,1.349,2.863
				c1.235,0.272,2.443,0.672,3.889,1.079c-0.633,1.257-1.087,2.16-1.351,2.685c1.826,0.396,3.751,0.483,5.347,1.25
				c1.63,0.783,3.541,1.853,2.812,4.101c0.939,0.437,1.941,0.613,2.488,1.209c1.934,2.104,4.125,2.107,6.788,1.753
				c4.763-0.634,8.714,1.379,12.291,4.527c1.58,1.392,2.37,2.771,2.636,4.811c0.235,1.807,1.006,3.502,2.771,4.567
				c0.358,0.217,0.567,1.417,0.31,1.792c-0.81,1.174-1.821,2.228-2.857,3.22c-1.002,0.958-2.543,1.608-1.235,3.412
				c0.141,0.195-0.179,0.724-0.307,1.175c0.699,0,1.391,0,2.121,0c0.054-0.592-0.046-1.374,0.229-1.989
				c0.249-0.559,0.904-1.325,1.381-1.326c1.939-0.003,3.88,0.252,5.832,0.414c-0.517,3.577-1.741,4.432-6.935,5.345
				c1.387,0.18,2.772,0.36,4.779,0.621c0.791-0.959,1.756-2.618,3.171-3.671c0.941-0.7,2.658-0.99,3.8-0.663
				c2.556,0.733,5.037,1.834,7.393,3.08c0.665,0.351,0.896,1.696,1.123,2.635c0.122,0.502-0.187,1.107-0.325,1.788
				c2.539-1.459,4.854-2.342,7.641-0.917c1.266,0.646,3.02,0.922,4.401,0.639c4.127-0.846,7.048,1.289,9.785,3.672
				c2.483,2.164,4.78,4.342,8.436,4.025c0.604-0.051,1.674,0.578,1.852,1.115c1.062,3.228,2.345,6.414,1.186,9.986
				c-0.992,3.062-3.347,4.979-5.335,7.234c-1.196,1.357-2.352,2.758-3.453,4.195c-0.598,0.778-0.934,1.775-1.59,2.49
				c-0.545,0.592-1.386,0.914-2.259,1.141c-1.914,2.74-1.041,5.981-1.145,9.145c-0.097,2.944-0.017,5.994-1.948,8.562
				c-0.263,0.348-0.5,0.861-0.458,1.27c0.332,3.282-1.65,5.488-3.507,7.764c-0.083,0.103-0.205,0.218-0.21,0.332
				c-0.123,2.698-2.397,3.824-3.99,5.439c-0.284,0.287-0.714,0.585-1.089,0.602c-1.729,0.073-3.46,0.024-5.189,0.071
				c-0.65,0.019-1.429-0.022-1.929,0.304c-4.022,2.618-9.169,3.307-12.51,6.949c-0.911,0.994-1.001,3.043-0.921,4.578
				c0.129,2.479,0.506,4.645-2.128,6.381c-1.528,1.008-2.354,3.082-3.397,4.541c-0.546-0.375-1.198-0.822-2.083-1.43
				c-1.474,2.87-2.539,5.607-4.186,7.938c-1.238,1.75-3.009,3.488-4.936,4.281c-1.71,0.703-4.025,0.406-5.952-0.014
				c-2.13-0.465-4.118-1.571-6.178-2.401c-0.505,1.123-0.414,1.376,1.016,2.101c1.305,0.664,2.956,0.998,2.384,3.149
				c-0.074,0.278,0.539,0.916,0.962,1.12c1.574,0.756,1.024,1.559,0.338,2.659c-1.905,3.055-5.003,2.813-7.902,2.926
				c-2.202,0.086-4.421-0.219-6.569-0.346c0.062,1.312,0.135,2.835,0.208,4.401c-2.649,1.438-4.754-0.726-7.519-1.189
				c0.384,1.264,0.42,2.454,1.026,3.141c1.016,1.146,1.259,2.041,0.207,3.211c-0.186,0.205-0.222,0.612-0.204,0.918
				c0.085,1.444-0.385,2.215-2.005,1.953c-0.486-0.078-1.059,0.107-1.538,0.301c-1.446,0.582-1.662,1.773-0.411,2.68
				c0.945,0.684,2.079,1.101,3.087,1.708c0.447,0.271,0.788,0.716,1.178,1.081c-0.43,0.41-0.806,1.074-1.302,1.181
				c-1.321,0.285-2.479,0.591-2.507,2.042c-0.935,0.396-1.722,0.729-2.509,1.061c0.396,0.914,0.791,1.83,1.234,2.855
				c-0.919,0-1.989-0.041-3.055,0.025c-0.3,0.018-0.719,0.277-0.849,0.543c-0.592,1.212-1.122,1.34-1.888,0.119
				c-0.167-0.268-0.784-0.217-1.151-0.398c-0.401-0.199-0.753-0.499-1.126-0.754c0.208-0.286,0.415-0.571,0.543-0.748
				c-0.786-0.291-1.802-0.546-2.682-1.044c-0.399-0.228-0.431-1.032-0.801-1.405c-0.853-0.857-1.81-1.611-2.865-2.529
				c0.112-0.28,0.365-0.726,0.464-1.201c0.152-0.748,0.103-0.655-0.938-0.717c-0.514-0.029-1.002-0.518-1.502-0.797
				c0.427-0.337,0.854-0.674,1.328-1.047c-0.536-1.751-0.38-4.287-4.028-4.66c1.261-0.787,1.87-1.166,2.479-1.545
				c0.773-0.675-1.673-1.277-0.058-2.367c0.303,1.141,0.604,2.278,0.903,3.418c0.158,0.002,0.316,0.004,0.474,0.006
				c0.074-0.723,0.175-1.444,0.219-2.17c0.097-1.563,0.308-3.141,0.182-4.688c-0.059-0.727-0.657-1.841-1.237-2.012
				c-2.201-0.65-3.079-1.377-2.195-3.286c1.044-2.257-0.638-3.718-0.83-5.562c-0.063-0.61,0.026-1.269,0.19-1.863
				c1.31-4.736,3.475-9.35,1.531-14.471c-0.354-0.935,0.208-2.181-0.019-3.201c-0.822-3.703,0.755-7.221,0.682-10.859
				c-0.069-3.43,0.165-6.868-0.029-10.287c-0.233-4.127-0.429-8.318-1.357-12.314c-0.393-1.688-2.482-3.114-4.041-4.36
				c-1.996-1.595-4.305-2.796-6.346-4.343c-1.61-1.219-3.146-2.596-4.469-4.114c-0.658-0.755-0.771-1.987-1.12-3.007
				c-0.209-0.612-0.339-1.258-0.599-1.846c-2.072-4.685-4.014-9.436-6.314-14.006c-1.301-2.584-2.009-5.635-4.771-7.363
				c-0.372-0.232-0.004-1.438-0.299-2.035c-1.439-2.912-0.37-4.986,1.906-6.887C332.275,241.6,332.334,240.555,332.654,239.684z"/>
			<path fill="#FFFFFF" d="M602.52,146.409c-5.088-8.404-11.61-15.529-18.811-22.051c-0.148,0.097-0.298,0.193-0.445,0.29
				c0.347,0.548,0.623,1.158,1.052,1.631c1.415,1.56,2.863,3.091,4.34,4.593c1.397,1.423,2.91,2.737,4.241,4.217
				c0.607,0.675,0.9,1.633,1.068,1.953c-1.688-1.534-3.727-3.326-5.692-5.192c-2.316-2.199-4.55-4.486-6.862-6.689
				c-1.35-1.285-2.626-2.611-4.799-2.608c-1.262,0.001-2.547-0.586-3.78-1.023c-1.209-0.429-2.366-1.002-3.548-1.512
				c-0.113,0.18-0.229,0.359-0.345,0.539c0.23,0.584,0.46,1.167,0.782,1.985c-0.787,0.074-1.58,0.021-2.282,0.247
				c-0.988,0.32-2.123,0.652-2.778,1.363c-0.371,0.404,0.093,1.575,0.218,2.759c-1.437,1.8-3.494,2.665-6.297,1.663
				c-1.058-0.378-2.488-0.529-3.468-0.115c-1.579,0.667-2.376,0.011-3.104-1.073c-0.902-1.341-2.087-1.846-3.688-1.844
				c-1.622,0.003-3.064-0.32-3.393-2.453c-0.122-0.801-1.124-1.467-1.932-2.444c1.886-2.723,0.436-5.362-1.164-8.018
				c2.95-0.95,5.536,0.498,8.188,1.233s5.228,1.747,7.846,2.609c0.291,0.097,0.643,0.014,1.246,0.014
				c-0.224-6.551-6.03-7.566-9.788-10.675c1.071,0.315,2.129,0.683,3.214,0.936c2.552,0.594,5.072,0.896,7.763,0.847
				c2.004-0.036,4.333-0.981,6.429,0.72c1.401,1.138,3.666,1.231,5.028,2.396c4.804,4.108,9.658,8.218,13.979,12.812
				c5.146,5.474,9.839,11.386,14.556,17.247c1.205,1.499,1.76,3.523,2.611,5.306C602.777,146.184,602.648,146.297,602.52,146.409z"
				/>
			<path fill="#FFFFFF" d="M466.492,415.639c7.188-0.916,14.271-1.689,21.312-2.757c5.784-0.876,11.591-1.803,17.248-3.251
				c5.82-1.49,11.527-3.486,17.182-5.546c5.05-1.84,9.956-4.069,14.927-6.129c0.071,0.149,0.145,0.299,0.217,0.448
				c-0.395,0.24-0.77,0.518-1.183,0.717c-14.629,7.096-29.959,12.082-45.997,14.682c-6.864,1.112-13.848,1.512-20.782,2.17
				C468.476,416.062,467.497,415.764,466.492,415.639z"/>
			<path fill="#FFFFFF" d="M387.115,398.322c0.996,0.371,1.994,0.744,3.212,1.199c-0.106-2.104,1.283-1.57,2.294-1.51
				c5.062,0.307,10.12,0.678,15.18,1.016c0.461,0.031,0.925,0.005,1.398,0.315c-5.257,0-10.512,0-16.174,0
				c4.651,2.253,8.917,4.316,13.184,6.382c-0.099,0.243-0.195,0.488-0.294,0.733c-6.709-1.544-13.183-3.776-19.385-7.173
				c0.196-0.329,0.391-0.65,0.584-0.973L387.115,398.322z"/>
			<path fill="#FFFFFF" d="M546.646,102.635c0.729-0.189,1.351-0.352,2.181-0.567c-0.947-0.491-1.757-0.909-2.564-1.328
				c0.752-0.398,1.478-0.782,2.561-1.355c-1.308-0.782-2.532-1.457-3.695-2.224c-1.59-1.048-3.142-2.154-4.683-3.272
				c-0.137-0.099-0.179-0.525-0.081-0.693c0.104-0.179,0.458-0.362,0.646-0.315c0.754,0.188,1.53,0.376,2.217,0.727
				c1.193,0.61,2.736,1.066,3.407,2.071c2.178,3.266,6.012,4.348,8.636,6.988c0.895,0.901,2.194,1.399,3.309,2.082
				c-0.014,0.218-0.025,0.437-0.04,0.654c-0.771,0-1.586,0.163-2.306-0.028C553.052,104.524,549.899,103.574,546.646,102.635z"/>
			<path fill="#FFFFFF" d="M328.933,170.475c0.972-2.47,3.143-3.21,5.35-3.951c2.512-0.844,4.776,0.312,7.01,0.978
				c2.976,0.888,5.796,2.292,8.756,3.956c-2.362,0.501-4.727,1.003-7.373,1.565c0.341-0.717,0.562-1.183,0.879-1.851
				c-0.834-0.131-1.61-0.068-2.157-0.394c-0.493-0.293-0.733-1.009-1.094-1.549c-1.831-0.17-4.188,0.312-5.436-0.647
				c-2.638-2.027-3.453,0.672-5.049,1.271C329.491,169.975,329.226,170.263,328.933,170.475z"/>
			<path fill="#FFFFFF" d="M411.085,93.688c-0.854,0.666-1.71,1.332-2.791,2.175c2.761,0,5.21,0,7.733,0
				c-0.016,0.121-0.265,0.696-0.086,0.907c0.92,1.086-0.118,1.281-0.691,1.448c-1.289,0.378-2.616,0.665-3.947,0.857
				c-3.284,0.475-6.579,0.874-10.421,1.376c3.812-2.25,5.896-6.068,9.878-7.308C410.868,93.326,410.977,93.507,411.085,93.688z"/>
			<path fill="#FFFFFF" d="M353.093,171.82c4.089-0.908,8.172-0.956,12.064,2.248c-1.691,0.277-3.176,0.404-4.591,0.786
				c-1.337,0.36-2.601,0.988-3.787,1.455c-1.197,0-2.428,0-3.656,0c-1.201,0-2.403,0-3.604,0c-0.011-0.154-0.021-0.308-0.031-0.462
				c1.597-0.134,3.191-0.268,5.132-0.43C354.019,174.003,353.578,172.964,353.093,171.82z"/>
			<path fill="#FFFFFF" d="M541.769,96.499c0.188,0.665,0.377,1.33,0.68,2.395c-2.862-0.438-5.556-0.851-8.249-1.263
				c-0.059-0.224-0.118-0.447-0.178-0.671c0.396-0.22,0.791-0.439,1.264-0.702c-0.615-0.581-1.103-1.039-1.588-1.497
				c0.065-0.194,0.132-0.389,0.198-0.584c2.768,0.537,5.535,1.073,8.303,1.61C542.055,96.024,541.911,96.262,541.769,96.499z"/>
			<path fill="#FFFFFF" d="M384.196,382.673c-3.822-1.069-7.28-2.038-10.738-3.006c0.029-0.147,0.061-0.295,0.091-0.442
				c0.363-0.049,0.728-0.098,1.041-0.14c-0.044-0.413-0.087-0.817-0.169-1.601c-0.137-0.053-0.701-0.272-1.267-0.491
				c0.047-0.212,0.094-0.425,0.14-0.636c1.062,0.256,2.287,0.258,3.157,0.814C378.969,378.786,381.346,380.623,384.196,382.673z"/>
			<path fill="#FFFFFF" d="M498.311,76.35c6.241,1.393,12.48,2.786,18.722,4.18c-0.052,0.228-0.103,0.454-0.154,0.681
				C510.629,79.843,504.09,79.705,498.311,76.35z"/>
			<path fill="#FFFFFF" d="M383.073,88.874c4.1-2.051,7.892-4.906,12.779-4.887c0.07,0.183,0.141,0.365,0.21,0.548
				c-4.263,1.623-8.524,3.246-12.787,4.869C383.208,89.228,383.141,89.051,383.073,88.874z"/>
			<path fill="#FFFFFF" d="M583.656,132.176c-2.495,0.084-1.798-2.299-2.996-3.143C582.475,128.807,582.475,128.807,583.656,132.176
				z"/>
			<path fill="#FFFFFF" d="M368.445,174.471c0.834-1.461,2.257-0.678,3.474-0.676c0.051,0.206,0.102,0.413,0.151,0.619
				c-1.11,0.27-2.223,0.54-3.335,0.81C368.638,174.973,368.541,174.722,368.445,174.471z"/>
			<path fill="#FFFFFF" d="M343.949,177.551c-2.291,1.383-2.291,1.383-3.805,0C341.641,177.551,342.795,177.551,343.949,177.551z"/>
			<path fill="#FFFFFF" d="M387.114,398.314c-1.092,1.039-1.998,0.9-2.979-0.256c-0.358-0.425-1.617-0.195-0.7-1.35
				c1.219,0.534,2.449,1.073,3.68,1.611L387.114,398.314z"/>
			<path fill="#FFFFFF" d="M594.092,141.121c-1.418-1.195-2.646-2.229-3.954-3.332C592.87,138.298,593.789,139.056,594.092,141.121z
				"/>
			<path fill="#FFFFFF" d="M415.107,98.801c1.097-0.204,2.19-0.408,3.396-0.633c-0.738,1.883-1.916,1.946-3.356,1.191
				C415.132,99.173,415.119,98.987,415.107,98.801z"/>
			<path fill="#FFFFFF" d="M444.304,415.253c-2.628-0.328-5.257-0.655-7.885-0.983c0.008-0.095,0.017-0.188,0.024-0.283
				c2.636,0.267,5.272,0.531,7.909,0.799C444.337,414.939,444.321,415.096,444.304,415.253z"/>
		</g>
	</g>
</g>
</svg>
