<svg version="1.1" id="Layer_1" xmlns="http://www.w3.org/2000/svg" xmlns:xlink="http://www.w3.org/1999/xlink" x="0" y="0" width="199.532" height="199.532" viewBox="0 0 199.532 199.532" enable-background="new 0 0 199.532 199.532" xml:space="preserve"><path fill="#FFF" d="M100.126,0C45.226-0.181,0.106,44.669,0,99.529c-0.106,54.909,44.773,99.946,99.653,100.003	c54.885,0.057,99.893-44.904,99.879-99.777C199.517,45.061,154.795,0.182,100.126,0z M161.088,74.553	c-1.541,1.923-3.108,4.412-3.28,6.749c-1.47,20-7.703,37.875-21.265,53.123c-24.006,26.992-64.177,31.773-94.522,15.236	c-0.531-0.289-0.96-0.764-0.848-0.672c8.845-2.398,17.894-4.646,26.793-7.381c3.074-0.945,5.776-3.098,8.828-4.798	c-5.125-2.392-10.285-3.929-14.349-6.942c-3.913-2.902-6.692-7.334-9.97-11.094c0.333-0.482,0.665-0.964,0.996-1.445	c2.902-0.334,5.804-0.666,9.926-1.14c-11.833-5.364-19.376-13.196-20.562-26.441c3.401,0.693,6.646,1.354,9.892,2.016	C42.6,81.293,41.297,69.597,46.316,55.483c15.317,17.126,33.523,26.885,56.25,28.526c0.17-3.401,0.058-6.53,0.521-9.572	c3.109-20.408,24.943-30.436,41.957-18.833c4.613,3.146,8.244,3.191,12.773,1.256c2.396-1.024,4.906-1.78,7.365-2.657	c0.389,0.381,0.775,0.762,1.162,1.142c-3.021,3.832-6.043,7.664-9.383,11.898c4.146-0.899,8.025-1.741,11.906-2.582	c0.215,0.336,0.43,0.673,0.646,1.009C166.679,68.61,163.629,71.379,161.088,74.553z"/></svg>