<svg enable-background="new 0 0 912.01 480.004" height="480.004" viewBox="0 0 912.01 480.004" width="912.01" xmlns="http://www.w3.org/2000/svg"><path d="m-28.495-1.748v485.495h970.989v-485.495z" fill="#00247d"/><g transform="matrix(.99923007 0 0 .99796116 -41.704693 34.67408)"><path d="m13.332-36.354-.084 55.016 377.059 188.632-376.953 188.463-.134 54.036 108.589.131 377.053-188.39 377.722 188.394 108.349.063-.003-53.724-377.482-188.973 377.461-188.672.048-55.099-107.967-.02-378.13 189.52-378.823-189.427z" fill="#fff"/><path d="m588.468 207.837 72.391-.261 413.68 207.153-.678 34.856zm412.751-243.225 70.153.1-482.943 243.239-.032-36.453 412.828-206.886zm-691.804 138.657-206.16-103.301v-35.357l485.277 243.145-71.517.093zm279.029 104.489v35.356l-412.771 206.703-72.186.046z" fill="#cf142b" transform="matrix(1.000467 0 0 1.0025461 -90.083492 -1.016739)"/></g><g transform="matrix(.99923007 0 0 .99796116 -71.704693 6.700586)"><path d="m447.138-9.465v162.162h-404.891v162.164h404.89v162.161h161.957v-162.161h404.89v-162.164h-404.89v-162.162z" fill="#fff"/><path d="m479.529-9.465v194.595h-437.282v97.298h437.282v194.594h97.175v-194.594h437.28v-97.298h-437.28v-194.595z" fill="#cf142b"/></g></svg>