<?xml version="1.0" encoding="utf-8"?>
<!-- Generator: Adobe Illustrator 16.0.4, SVG Export Plug-In . SVG Version: 6.00 Build 0)  -->
<!DOCTYPE svg PUBLIC "-//W3C//DTD SVG 1.1//EN" "http://www.w3.org/Graphics/SVG/1.1/DTD/svg11.dtd">
<svg version="1.1" id="flag-icon-css-us" xmlns="http://www.w3.org/2000/svg" xmlns:xlink="http://www.w3.org/1999/xlink" x="0px"
	 y="0px" width="912.009px" height="480.005px" viewBox="0 0 912.009 480.005" enable-background="new 0 0 912.009 480.005"
	 xml:space="preserve">
<g transform="scale(.9375)">
	<g>
		<path fill="#BD3D44" d="M0,0H972.81v39.385H0V0z M0,78.77H972.81v39.385H0V78.77z M0,157.54H972.81v39.385H0V157.54z M0,236.31
			H972.81v39.385H0V236.31z M0,315.08H972.81v39.384H0V315.08z M0,393.85H972.81v39.385H0V393.85z M0,472.62H972.81v39.385H0V472.62
			z"/>
		<path fill="#FFFFFF" d="M0,39.385H972.81V78.77H0V39.385z M0,118.155H972.81v39.385H0V118.155z M0,196.925H972.81v39.385H0
			V196.925z M0,275.695H972.81v39.385H0V275.695z M0,354.465H972.81v39.385H0V354.465z M0,433.235H972.81v39.384H0V433.235z"/>
	</g>
	<path fill="#192F5D" d="M0,0h389.12v275.69H0V0z"/>
	<g>
		<path fill="#FFFFFF" d="M32.427,11.8l3.54,10.896h11.458l-9.27,6.735l3.541,10.896l-9.27-6.734l-9.269,6.734l3.541-10.896
			l-9.269-6.735h11.456L32.427,11.8z M97.28,11.8l3.541,10.896h11.458l-9.271,6.735l3.542,10.896l-9.27-6.734l-9.269,6.734
			l3.541-10.896l-9.27-6.735H93.74L97.28,11.8z M162.136,11.8l3.541,10.896h11.457l-9.27,6.735l3.542,10.896l-9.27-6.734
			l-9.269,6.734l3.54-10.896l-9.269-6.735h11.458L162.136,11.8z M226.988,11.8l3.541,10.896h11.456l-9.269,6.735l3.54,10.896
			l-9.268-6.734l-9.27,6.734l3.541-10.896l-9.27-6.735h11.458L226.988,11.8z M291.843,11.8l3.54,10.896h11.458l-9.27,6.735
			l3.541,10.896l-9.27-6.734l-9.268,6.734l3.54-10.896l-9.269-6.735h11.457L291.843,11.8z M356.698,11.8l3.54,10.896h11.458
			l-9.271,6.735l3.542,10.896l-9.269-6.734l-9.271,6.734l3.543-10.896l-9.27-6.735h11.457L356.698,11.8z M64.855,39.37l3.54,10.896
			h11.458L70.583,57l3.543,10.897l-9.27-6.734l-9.27,6.734L59.126,57l-9.27-6.734h11.458L64.855,39.37z M129.707,39.37l3.541,10.896
			h11.457L135.435,57l3.541,10.897l-9.269-6.734l-9.27,6.734L123.978,57l-9.271-6.734h11.458L129.707,39.37z M194.562,39.37
			l3.541,10.896h11.457L200.29,57l3.541,10.897l-9.27-6.734l-9.268,6.734L188.833,57l-9.269-6.734h11.457L194.562,39.37z
			 M259.417,39.37l3.54,10.896h11.458L265.145,57l3.541,10.897l-9.269-6.734l-9.27,6.734L253.69,57l-9.27-6.734h11.458
			L259.417,39.37z M324.269,39.37l3.54,10.896h11.457L329.997,57l3.54,10.897l-9.268-6.734l-9.27,6.734L318.54,57l-9.27-6.734
			h11.457L324.269,39.37z M32.427,66.939l3.54,10.896h11.458l-9.27,6.735l3.541,10.896l-9.27-6.734l-9.269,6.734l3.541-10.896
			l-9.269-6.735h11.456L32.427,66.939z M97.28,66.939l3.541,10.896h11.458l-9.271,6.735l3.542,10.896l-9.27-6.734l-9.269,6.734
			l3.541-10.896l-9.27-6.735H93.74L97.28,66.939z M162.136,66.939l3.541,10.896h11.457l-9.27,6.735l3.542,10.896l-9.27-6.734
			l-9.269,6.734l3.54-10.896l-9.269-6.735h11.458L162.136,66.939z M226.988,66.939l3.541,10.896h11.456l-9.269,6.735l3.54,10.896
			l-9.268-6.734l-9.27,6.734l3.541-10.896l-9.27-6.735h11.458L226.988,66.939z M291.843,66.939l3.54,10.896h11.458l-9.27,6.735
			l3.541,10.896l-9.27-6.734l-9.268,6.734l3.54-10.896l-9.269-6.735h11.457L291.843,66.939z M356.698,66.939l3.54,10.896h11.458
			l-9.271,6.735l3.542,10.896l-9.269-6.734l-9.271,6.734l3.543-10.896l-9.27-6.735h11.457L356.698,66.939z M64.855,94.508
			l3.54,10.897h11.458l-9.271,6.734l3.543,10.897l-9.27-6.734l-9.27,6.734l3.541-10.897l-9.27-6.734h11.458L64.855,94.508z
			 M129.707,94.508l3.541,10.897h11.457l-9.27,6.734l3.541,10.897l-9.269-6.734l-9.27,6.734l3.542-10.897l-9.271-6.734h11.458
			L129.707,94.508z M194.562,94.508l3.541,10.897h11.457l-9.27,6.734l3.541,10.897l-9.27-6.734l-9.268,6.734l3.54-10.897
			l-9.269-6.734h11.457L194.562,94.508z M259.417,94.508l3.54,10.897h11.458l-9.27,6.734l3.541,10.897l-9.269-6.734l-9.27,6.734
			l3.542-10.897l-9.27-6.734h11.458L259.417,94.508z M324.269,94.508l3.54,10.897h11.457l-9.269,6.734l3.54,10.897l-9.268-6.734
			l-9.27,6.734l3.541-10.897l-9.27-6.734h11.457L324.269,94.508z M32.427,122.078l3.54,10.896h11.458l-9.27,6.735l3.541,10.896
			l-9.27-6.734l-9.269,6.734l3.541-10.896l-9.269-6.735h11.456L32.427,122.078z M97.28,122.078l3.541,10.896h11.458l-9.271,6.735
			l3.542,10.896l-9.27-6.734l-9.269,6.734l3.541-10.896l-9.27-6.735H93.74L97.28,122.078z M162.136,122.078l3.541,10.896h11.457
			l-9.27,6.735l3.542,10.896l-9.27-6.734l-9.269,6.734l3.54-10.896l-9.269-6.735h11.458L162.136,122.078z M226.988,122.078
			l3.541,10.896h11.456l-9.269,6.735l3.54,10.896l-9.268-6.734l-9.27,6.734l3.541-10.896l-9.27-6.735h11.458L226.988,122.078z
			 M291.843,122.078l3.54,10.896h11.458l-9.27,6.735l3.541,10.896l-9.27-6.734l-9.268,6.734l3.54-10.896l-9.269-6.735h11.457
			L291.843,122.078z M356.698,122.078l3.54,10.896h11.458l-9.271,6.735l3.542,10.896l-9.269-6.734l-9.271,6.734l3.543-10.896
			l-9.27-6.735h11.457L356.698,122.078z M64.855,149.647l3.54,10.897h11.458l-9.271,6.734l3.543,10.897l-9.27-6.734l-9.27,6.734
			l3.541-10.897l-9.27-6.734h11.458L64.855,149.647z M129.707,149.647l3.541,10.897h11.457l-9.27,6.734l3.541,10.897l-9.269-6.734
			l-9.27,6.734l3.542-10.897l-9.271-6.734h11.458L129.707,149.647z M194.562,149.647l3.541,10.897h11.457l-9.27,6.734l3.541,10.897
			l-9.27-6.734l-9.268,6.734l3.54-10.897l-9.269-6.734h11.457L194.562,149.647z M259.417,149.647l3.54,10.897h11.458l-9.27,6.734
			l3.541,10.897l-9.269-6.734l-9.27,6.734l3.542-10.897l-9.27-6.734h11.458L259.417,149.647z M324.269,149.647l3.54,10.897h11.457
			l-9.269,6.734l3.54,10.897l-9.268-6.734l-9.27,6.734l3.541-10.897l-9.27-6.734h11.457L324.269,149.647z"/>
		<g>
			<path fill="#FFFFFF" d="M32.427,177.217l3.54,10.896h11.458l-9.27,6.735l3.541,10.896l-9.27-6.734l-9.269,6.734l3.541-10.896
				l-9.269-6.735h11.456L32.427,177.217z M97.28,177.217l3.541,10.896h11.458l-9.271,6.735l3.542,10.896l-9.27-6.734l-9.269,6.734
				l3.541-10.896l-9.27-6.735H93.74L97.28,177.217z M162.136,177.217l3.541,10.896h11.457l-9.27,6.735l3.542,10.896l-9.27-6.734
				l-9.269,6.734l3.54-10.896l-9.269-6.735h11.458L162.136,177.217z M226.988,177.217l3.541,10.896h11.456l-9.269,6.735l3.54,10.896
				l-9.268-6.734l-9.27,6.734l3.541-10.896l-9.27-6.735h11.458L226.988,177.217z M291.843,177.217l3.54,10.896h11.458l-9.27,6.735
				l3.541,10.896l-9.27-6.734l-9.268,6.734l3.54-10.896l-9.269-6.735h11.457L291.843,177.217z M356.698,177.217l3.54,10.896h11.458
				l-9.271,6.735l3.542,10.896l-9.269-6.734l-9.271,6.734l3.543-10.896l-9.27-6.735h11.457L356.698,177.217z M64.855,204.786
				l3.54,10.897h11.458l-9.271,6.734l3.543,10.897l-9.27-6.734l-9.27,6.734l3.541-10.897l-9.27-6.734h11.458L64.855,204.786z
				 M129.707,204.786l3.541,10.897h11.457l-9.27,6.734l3.541,10.897l-9.269-6.734l-9.27,6.734l3.542-10.897l-9.271-6.734h11.458
				L129.707,204.786z M194.562,204.786l3.541,10.897h11.457l-9.27,6.734l3.541,10.897l-9.27-6.734l-9.268,6.734l3.54-10.897
				l-9.269-6.734h11.457L194.562,204.786z M259.417,204.786l3.54,10.897h11.458l-9.27,6.734l3.541,10.897l-9.269-6.734l-9.27,6.734
				l3.542-10.897l-9.27-6.734h11.458L259.417,204.786z M324.269,204.786l3.54,10.897h11.457l-9.269,6.734l3.54,10.897l-9.268-6.734
				l-9.27,6.734l3.541-10.897l-9.27-6.734h11.457L324.269,204.786z"/>
		</g>
		<g>
			<path fill="#FFFFFF" d="M32.427,232.356l3.54,10.896h11.458l-9.27,6.735l3.541,10.896l-9.27-6.734l-9.269,6.734l3.541-10.896
				l-9.269-6.735h11.456L32.427,232.356z M97.28,232.356l3.541,10.896h11.458l-9.271,6.735l3.542,10.896l-9.27-6.734l-9.269,6.734
				l3.541-10.896l-9.27-6.735H93.74L97.28,232.356z M162.136,232.356l3.541,10.896h11.457l-9.27,6.735l3.542,10.896l-9.27-6.734
				l-9.269,6.734l3.54-10.896l-9.269-6.735h11.458L162.136,232.356z M226.988,232.356l3.541,10.896h11.456l-9.269,6.735l3.54,10.896
				l-9.268-6.734l-9.27,6.734l3.541-10.896l-9.27-6.735h11.458L226.988,232.356z M291.843,232.356l3.54,10.896h11.458l-9.27,6.735
				l3.541,10.896l-9.27-6.734l-9.268,6.734l3.54-10.896l-9.269-6.735h11.457L291.843,232.356z M356.698,232.356l3.54,10.896h11.458
				l-9.271,6.735l3.542,10.896l-9.269-6.734l-9.271,6.734l3.543-10.896l-9.27-6.735h11.457L356.698,232.356z"/>
		</g>
	</g>
</g>
</svg>
