<svg version="1.1" id="Layer_1" xmlns="http://www.w3.org/2000/svg" xmlns:xlink="http://www.w3.org/1999/xlink" x="0" y="0" width="199.875" height="199.875" viewBox="0 0 199.875 199.875" enable-background="new 0 0 199.875 199.875" xml:space="preserve"><g><path fill="#FFF" d="M100.207,0C44.926-0.095-0.04,44.797,0,100.042c0.041,55.007,44.902,99.832,99.918,99.833 c55.031,0,99.9-44.794,99.957-99.793C199.93,45.039,155.17,0.094,100.207,0z M169.977,123.534 c-0.039,13.473-8.336,22.67-21.822,22.807c-32.135,0.324-64.277,0.324-96.412-0.002c-13.494-0.137-21.804-9.33-21.843-22.784 c-0.046-15.654-0.037-31.31-0.004-46.962c0.029-14.162,8.642-22.965,23.072-23.152c15.649-0.206,31.304-0.048,46.958-0.052 c15.154-0.006,30.308-0.066,45.462,0.012c16.268,0.082,24.596,8.494,24.602,24.67C169.995,93.225,170.021,108.38,169.977,123.534z"/><path fill="#FFF" d="M85.333,117.018c9.992-5.775,19.364-11.193,29.558-17.086c-10.334-5.968-19.637-11.341-29.558-17.069 C85.333,94.62,85.333,105.46,85.333,117.018z"/></g></svg>